<svg width="200" height="68" viewBox="0 0 2111 248" fill="none" xmlns="http://www.w3.org/2000/svg">
    <path d="M193.541 184.753L116.314 64.7972C112.178 58.3733 112.064 50.1544 116.019 43.6177L142.409 0L265.154 193.927H210.357C203.556 193.927 197.222 190.471 193.541 184.753Z" fill="black"/>
    <path d="M267.435 203.966H187.658C179.828 203.966 172.719 208.534 169.466 215.656L157.923 240.926H290.25L267.435 203.966Z" fill="black"/>
    <path d="M134.379 227.189C128.88 236.795 118.83 242.559 108.021 242.751H83.9376H42.2188H0.5L21.3594 206.247H63.0782H104.797H146.516L134.379 227.189Z" fill="#FF4802"/>
    <path d="M160.576 158.187C164.948 165.771 164.948 175.252 160.576 182.836L146.887 206.537L134.91 227.393C129.397 236.874 119.321 242.751 108.294 242.751H84.15L105.062 206.726L125.975 170.511L146.887 134.297L160.576 158.187ZM105.062 62.0569L84.15 98.082L63.2375 134.107L42.325 170.132L21.4125 206.347L0.5 242.372H42.325L63.2375 206.347L84.15 170.132L105.062 133.918L119.321 109.458C123.504 102.253 123.504 93.5315 119.321 86.3264L105.062 62.0569Z" fill="url(#paint0_linear_0_1)"/>
    <path d="M448.438 189.338C448.438 182.958 450.602 177.603 454.932 173.273C459.489 168.716 464.958 166.438 471.338 166.438H523.633L514.746 141.145C511.1 131.802 507.454 123.029 503.809 114.826C500.391 106.395 496.403 98.7617 491.846 91.9258C487.744 85.0898 483.073 81.444 477.832 80.9883C472.363 81.444 467.464 85.0898 463.135 91.9258C458.805 98.7617 454.818 106.395 451.172 114.826C447.754 123.029 444.222 131.802 440.576 141.145L408.105 230.012C405.827 234.797 402.865 238.785 399.219 241.975C395.801 244.937 390.56 246.418 383.496 246.418C376.888 246.418 371.419 244.139 367.09 239.582C362.988 235.025 361.165 229.556 361.621 223.176C361.849 220.214 362.533 217.479 363.672 214.973L401.27 117.902C411.751 92.3815 422.233 71.7598 432.715 56.0371C442.969 40.5423 458.008 32.681 477.832 32.4531C497.428 32.681 512.354 40.5423 522.607 56.0371C533.089 71.304 543.571 91.9258 554.053 117.902L591.65 214.973C592.79 217.479 593.473 220.214 593.701 223.176C594.157 229.556 592.22 235.025 587.891 239.582C583.789 244.139 578.434 246.418 571.826 246.418C564.307 246.418 558.724 244.937 555.078 241.975C551.66 238.785 548.812 234.797 546.533 230.012L540.039 212.238H471.338C464.958 212.238 459.603 209.96 455.273 205.402C450.716 201.073 448.438 195.718 448.438 189.338ZM704.785 189.338C704.785 182.958 706.95 177.603 711.279 173.273C715.837 168.716 721.305 166.438 727.686 166.438H779.98L771.094 141.145C767.448 131.802 763.802 123.029 760.156 114.826C756.738 106.395 752.751 98.7617 748.193 91.9258C744.092 85.0898 739.421 81.444 734.18 80.9883C728.711 81.444 723.812 85.0898 719.482 91.9258C715.153 98.7617 711.165 106.395 707.52 114.826C704.102 123.029 700.57 131.802 696.924 141.145L664.453 230.012C662.174 234.797 659.212 238.785 655.566 241.975C652.148 244.937 646.908 246.418 639.844 246.418C633.236 246.418 627.767 244.139 623.438 239.582C619.336 235.025 617.513 229.556 617.969 223.176C618.197 220.214 618.88 217.479 620.02 214.973L657.617 117.902C668.099 92.3815 678.581 71.7598 689.062 56.0371C699.316 40.5423 714.355 32.681 734.18 32.4531C753.776 32.681 768.701 40.5423 778.955 56.0371C789.437 71.304 799.919 91.9258 810.4 117.902L847.998 214.973C849.137 217.479 849.821 220.214 850.049 223.176C850.505 229.556 848.568 235.025 844.238 239.582C840.137 244.139 834.782 246.418 828.174 246.418C820.654 246.418 815.072 244.937 811.426 241.975C808.008 238.785 805.16 234.797 802.881 230.012L796.387 212.238H727.686C721.305 212.238 715.951 209.96 711.621 205.402C707.064 201.073 704.785 195.718 704.785 189.338ZM877.051 219.416C877.051 213.036 879.215 207.681 883.545 203.352C888.102 198.794 893.571 196.516 899.951 196.516H965.576V86.457H899.951C893.571 86.457 888.216 84.1784 883.887 79.6211C879.329 75.2917 877.051 69.9368 877.051 63.5566C877.051 57.1764 879.215 51.8216 883.545 47.4922C888.102 42.9349 893.571 40.6562 899.951 40.6562H1077C1083.38 40.6562 1088.85 42.821 1093.41 47.1504C1097.74 51.7077 1099.9 57.1764 1099.9 63.5566C1099.9 69.9368 1097.62 75.4056 1093.07 79.9629C1088.74 84.2923 1083.38 86.457 1077 86.457H1011.72V196.516H1077C1083.38 196.516 1088.85 198.68 1093.41 203.01C1097.74 207.567 1099.9 213.036 1099.9 219.416C1099.9 225.796 1097.62 231.265 1093.07 235.822C1088.74 240.152 1083.38 242.316 1077 242.316H899.951C893.571 242.316 888.216 240.038 883.887 235.48C879.329 231.151 877.051 225.796 877.051 219.416Z" fill="black"/>
    <path d="M1128.61 63.5566C1128.61 57.1764 1130.78 51.8216 1135.11 47.4922C1139.66 42.9349 1145.13 40.6562 1151.51 40.6562H1350.44C1356.82 40.6562 1362.29 42.821 1366.85 47.1504C1371.18 51.7077 1373.34 57.1764 1373.34 63.5566C1373.34 69.9368 1371.06 75.4056 1366.5 79.9629C1362.17 84.2923 1356.82 86.457 1350.44 86.457H1274.22V224.885C1272.85 238.557 1265.33 245.962 1251.66 247.102C1245.28 247.102 1239.7 245.051 1234.91 240.949C1230.35 236.62 1228.08 231.265 1228.08 224.885V86.457H1151.51C1145.13 86.457 1139.78 84.1784 1135.45 79.6211C1130.89 75.2917 1128.61 69.9368 1128.61 63.5566ZM1472.8 40.6562H1488.53H1604.74C1611.12 40.8841 1616.36 43.2767 1620.46 47.834C1624.79 52.3913 1626.95 57.86 1626.95 64.2402C1625.81 77.9121 1618.41 85.3177 1604.74 86.457H1484.42C1475.76 86.9128 1468.59 90.2168 1462.89 96.3691C1457.19 102.521 1452.98 109.585 1450.24 117.561C1447.74 125.308 1446.48 133.283 1446.48 141.486C1446.48 149.689 1447.74 157.779 1450.24 165.754C1452.98 173.501 1457.19 180.451 1462.89 186.604C1468.59 192.756 1475.76 196.06 1484.42 196.516H1604.74C1611.12 196.743 1616.36 199.136 1620.46 203.693C1624.79 208.251 1626.95 213.719 1626.95 220.1C1626.73 226.252 1624.45 231.493 1620.12 235.822C1616.02 239.924 1610.89 242.089 1604.74 242.316H1479.3H1472.8C1456.85 241.405 1443.64 235.367 1433.15 224.201C1422.9 212.808 1415.49 199.934 1410.94 185.578C1406.61 171.223 1404.44 156.525 1404.44 141.486C1404.44 126.447 1406.72 111.75 1411.28 97.3945C1415.84 83.0391 1423.24 70.2786 1433.5 59.1133C1443.75 47.7201 1456.85 41.5677 1472.8 40.6562ZM1626.27 140.119C1626.27 146.499 1623.99 151.854 1619.43 156.184C1615.1 160.741 1609.75 163.02 1603.37 163.02H1500.15C1493.77 163.02 1488.3 160.855 1483.74 156.525C1479.41 151.968 1477.25 146.499 1477.25 140.119C1477.25 133.739 1479.41 128.27 1483.74 123.713C1488.3 119.383 1493.77 117.219 1500.15 117.219H1603.37C1609.75 117.219 1615.1 119.497 1619.43 124.055C1623.99 128.384 1626.27 133.739 1626.27 140.119ZM1739.06 86.457C1730.4 86.9128 1723.11 90.2168 1717.19 96.3691C1711.49 102.521 1707.39 109.585 1704.88 117.561C1702.38 125.308 1701.12 133.283 1701.12 141.486C1701.12 149.689 1702.26 157.779 1704.54 165.754C1707.05 173.729 1711.26 180.793 1717.19 186.945C1723.11 192.87 1730.4 196.06 1739.06 196.516H1851.86C1866.21 197.883 1874.07 205.744 1875.44 220.1C1875.21 226.48 1872.82 231.835 1868.26 236.164C1863.7 240.266 1858.24 242.316 1851.86 242.316H1742.82H1727.1C1711.15 241.405 1698.05 235.367 1687.79 224.201C1677.54 212.808 1670.13 199.934 1665.58 185.578C1661.25 171.223 1659.08 156.525 1659.08 141.486C1659.08 130.321 1660.34 119.27 1662.84 108.332C1665.35 97.3945 1669.22 87.0267 1674.46 77.2285C1679.93 67.2025 1687.11 58.6576 1696 51.5938C1705.11 44.5299 1715.48 40.8841 1727.1 40.6562H1733.59H1851.86C1866.21 42.0234 1874.07 49.8848 1875.44 64.2402C1875.44 70.6204 1873.05 75.9753 1868.26 80.3047C1863.7 84.4062 1858.24 86.457 1851.86 86.457H1739.06ZM1930.47 35.1875C1936.62 35.4154 1941.86 37.694 1946.19 42.0234C1950.52 46.125 1952.8 51.252 1953.03 57.4043V114.484H2064.11V57.4043C2064.34 51.0241 2066.73 45.7832 2071.29 41.6816C2075.85 37.3522 2081.32 35.1875 2087.7 35.1875C2093.85 35.4154 2099.09 37.694 2103.42 42.0234C2107.75 46.125 2110.03 51.252 2110.25 57.4043V224.885C2108.89 238.557 2101.37 245.962 2087.7 247.102C2081.32 247.102 2075.73 245.051 2070.95 240.949C2066.39 236.62 2064.11 231.265 2064.11 224.885V160.285H1953.03V224.885C1951.66 238.557 1944.14 245.962 1930.47 247.102C1924.09 247.102 1918.51 245.051 1913.72 240.949C1909.16 236.62 1906.88 231.265 1906.88 224.885V57.4043C1907.11 51.0241 1909.51 45.7832 1914.06 41.6816C1918.62 37.3522 1924.09 35.1875 1930.47 35.1875Z" fill="#FF662C"/>
    <defs>
        <linearGradient id="paint0_linear_0_1" x1="136.975" y1="110.08" x2="82.3549" y2="209.907" gradientUnits="userSpaceOnUse">
            <stop stop-color="#FF4802"/>
            <stop offset="1" stop-color="#FFA07B"/>
        </linearGradient>
    </defs>
</svg>
